<?xml version="1.0" encoding="UTF-8"?>
<svg width="16px" height="16px" viewBox="0 0 16 16" version="1.1" xmlns="http://www.w3.org/2000/svg" xmlns:xlink="http://www.w3.org/1999/xlink">
    <!-- Generator: Sketch 64 (93537) - https://sketch.com -->
    <title>icon/平台/猫眼娱乐</title>
    <desc>Created with Sketch.</desc>
    <g id="icon/平台/猫眼娱乐" stroke="none" stroke-width="1" fill="none" fill-rule="evenodd">
        <g id="Group">
            <rect id="Rectangle" fill="#000000" fill-rule="nonzero" opacity="0" x="0" y="0" width="16" height="16"></rect>
            <g id="Group-7" transform="translate(1.000000, 1.000000)" fill="#F03D37">
                <g id="Group-6">
                    <path d="M9.3687,7.8799 C9.3687,8.0149 9.2327,8.1509 9.0977,8.1509 C8.9627,8.1509 8.8267,8.0149 8.8267,7.8799 L8.8267,6.4589 C8.8267,6.3229 8.9627,6.1879 9.0977,6.1879 C9.2327,6.1879 9.3687,6.2559 9.3687,6.4589 L9.3687,7.8799 Z M5.1737,6.4589 L5.1737,7.8799 C5.1737,8.0149 5.0377,8.1509 4.9017,8.1509 C4.7667,8.1509 4.6317,8.0149 4.6317,7.8799 L4.6317,6.4589 C4.6317,6.3229 4.7667,6.1879 4.9017,6.1879 C5.1047,6.1879 5.2407,6.2559 5.1737,6.4589 L5.1737,6.4589 Z M9.0977,5.4429 C8.2187,5.4429 7.4737,6.1879 7.4737,7.1359 C7.4737,7.8129 7.9477,8.4209 8.5567,8.6919 C8.8267,8.7599 8.8267,9.1649 8.6247,9.3679 C8.4217,9.5709 8.2187,9.6399 8.0147,9.6399 C7.6087,9.6399 7.3387,9.3679 7.2027,9.0299 C7.4057,8.9629 7.5417,8.8269 7.5417,8.6919 C7.5417,8.4879 7.3387,8.3539 7.0677,8.3539 C6.7977,8.3539 6.5947,8.4879 6.5947,8.6919 C6.5947,8.8269 6.7287,8.9629 6.9317,9.0299 C6.7977,9.3679 6.4587,9.6399 6.1207,9.6399 C5.8487,9.6399 5.6467,9.5039 5.5117,9.3679 C5.3077,9.1649 5.3077,8.8269 5.5787,8.6919 C6.1877,8.4879 6.6617,7.8799 6.6617,7.1359 C6.6617,6.1879 5.9177,5.4429 5.0377,5.4429 C4.1577,5.4429 3.4137,6.1879 3.4137,7.1359 C3.4137,8.0829 4.1577,8.8269 5.0377,8.8269 C5.0377,9.5039 5.5117,9.9779 6.1207,9.9779 C6.5257,9.9779 6.8647,9.7069 7.0677,9.3679 C7.2707,9.7749 7.6087,9.9779 8.0147,9.9779 C8.6247,9.9779 9.0977,9.4369 9.0977,8.8269 C9.9767,8.8269 10.7227,8.0829 10.7227,7.1359 C10.7227,6.1879 9.9767,5.4429 9.0977,5.4429 L9.0977,5.4429 Z" id="Fill-2"></path>
                    <path d="M13.3609,9.2334 C13.2939,9.4364 13.2259,9.5714 13.1579,9.7074 C12.2789,9.5044 11.6699,9.3684 11.3989,9.3684 C11.3309,9.5044 11.2629,9.5714 11.1959,9.7074 C11.9399,9.9104 12.6169,10.2484 12.8199,10.3834 C12.7529,10.5184 12.6169,10.6544 12.5489,10.7904 C11.6699,10.2484 11.1289,10.1134 10.8569,10.1134 C9.9769,11.0604 8.5559,11.6694 7.0009,11.6694 C5.4439,11.6694 4.0219,11.0604 3.1429,10.1134 C2.9399,10.1134 2.3309,10.2484 1.4509,10.7904 C1.3159,10.6544 1.2479,10.5184 1.1799,10.3834 C1.3829,10.3154 2.0599,9.9104 2.8039,9.7074 C2.7369,9.5714 2.6699,9.5044 2.6009,9.3684 C2.2629,9.3684 1.7209,9.4364 0.8419,9.7074 C0.7739,9.5044 0.7069,9.3684 0.6389,9.2334 C0.9099,9.0974 1.5189,8.9624 2.3309,8.8274 C2.2629,8.6914 2.2629,8.5564 2.1959,8.4214 C1.8569,8.4214 1.1799,8.4214 0.4359,8.5564 C0.4359,8.4214 0.3689,8.2174 0.3689,8.0834 C0.6389,8.0144 1.3159,7.9474 2.1279,7.9474 C2.0599,7.7444 2.0599,7.6094 2.0599,7.4064 C2.0599,6.7294 2.2629,6.0524 2.6009,5.4434 C2.6009,5.3764 2.6699,3.8864 3.1429,2.6014 C3.1429,2.5344 3.2109,2.5344 3.2779,2.5344 C4.2249,2.8044 5.1049,3.4814 5.1729,3.4814 C5.7149,3.3454 6.3239,3.2104 7.0009,3.2104 C7.6759,3.2104 8.2859,3.3454 8.8269,3.4134 C8.8269,3.4134 9.7749,2.7364 10.7219,2.4654 C10.7899,2.3984 10.8569,2.4654 10.8569,2.5344 C11.2629,3.8194 11.3309,5.3084 11.3309,5.3764 C11.7369,5.9174 11.9399,6.5934 11.9399,7.3374 C11.9399,7.5414 11.8729,7.6764 11.8729,7.8794 C12.7529,7.8794 13.4289,7.9474 13.6319,8.0144 C13.6319,8.2174 13.6319,8.3534 13.5639,8.4884 C12.8199,8.4214 12.1429,8.3534 11.8039,8.4214 C11.8039,8.5564 11.7369,8.6914 11.6699,8.8274 C12.4809,8.9624 13.1579,9.1654 13.3609,9.2334 M7.0009,0.2324 C3.2779,0.2324 0.2329,3.2784 0.2329,7.0004 C0.2329,10.7214 3.2779,13.7674 7.0009,13.7674 C10.7219,13.7674 13.7669,10.7214 13.7669,7.0004 C13.7669,3.2784 10.7219,0.2324 7.0009,0.2324" id="Fill-4"></path>
                </g>
            </g>
        </g>
    </g>
</svg>